<mxfile host="65bd71144e">
    <diagram id="P4GVzNzSQrlSMBZr0G-c" name="Page-1">
        <mxGraphModel dx="1061" dy="1380" grid="1" gridSize="10" guides="1" tooltips="1" connect="1" arrows="1" fold="1" page="1" pageScale="1" pageWidth="1920" pageHeight="1200" math="0" shadow="0">
            <root>
                <mxCell id="0"/>
                <mxCell id="1" parent="0"/>
                <mxCell id="9" style="edgeStyle=orthogonalEdgeStyle;html=1;entryX=0;entryY=0.5;entryDx=0;entryDy=0;" parent="1" source="2" target="0lW3_WW0hC5Z8SqvEmVx-31" edge="1">
                    <mxGeometry relative="1" as="geometry">
                        <mxPoint x="540" y="610" as="targetPoint"/>
                    </mxGeometry>
                </mxCell>
                <mxCell id="2" value="Find Boundary Edges" style="rounded=0;whiteSpace=wrap;html=1;" parent="1" vertex="1">
                    <mxGeometry x="360" y="580" width="120" height="60" as="geometry"/>
                </mxCell>
                <mxCell id="6" style="edgeStyle=orthogonalEdgeStyle;html=1;entryX=0;entryY=0.5;entryDx=0;entryDy=0;" parent="1" source="3" target="2" edge="1">
                    <mxGeometry relative="1" as="geometry"/>
                </mxCell>
                <mxCell id="3" value="Quad Mesh&lt;br&gt;&lt;i&gt;json&lt;/i&gt;" style="shape=parallelogram;perimeter=parallelogramPerimeter;whiteSpace=wrap;html=1;fixedSize=1;fillColor=#000000;fontColor=#FFFFFF;" parent="1" vertex="1">
                    <mxGeometry x="210" y="580" width="130" height="60" as="geometry"/>
                </mxCell>
                <mxCell id="0lW3_WW0hC5Z8SqvEmVx-33" style="edgeStyle=none;html=1;entryX=0;entryY=0.5;entryDx=0;entryDy=0;" edge="1" parent="1" source="0lW3_WW0hC5Z8SqvEmVx-31" target="0lW3_WW0hC5Z8SqvEmVx-32">
                    <mxGeometry relative="1" as="geometry"/>
                </mxCell>
                <mxCell id="0lW3_WW0hC5Z8SqvEmVx-31" value="Boundary Edges&lt;br&gt;&lt;i&gt;?&lt;/i&gt;" style="shape=parallelogram;perimeter=parallelogramPerimeter;whiteSpace=wrap;html=1;fixedSize=1;fillColor=#000000;fontColor=#FFFFFF;" vertex="1" parent="1">
                    <mxGeometry x="500" y="580" width="130" height="60" as="geometry"/>
                </mxCell>
                <mxCell id="0lW3_WW0hC5Z8SqvEmVx-35" style="edgeStyle=none;html=1;" edge="1" parent="1" source="0lW3_WW0hC5Z8SqvEmVx-32" target="0lW3_WW0hC5Z8SqvEmVx-34">
                    <mxGeometry relative="1" as="geometry"/>
                </mxCell>
                <mxCell id="0lW3_WW0hC5Z8SqvEmVx-32" value="Create vertices of Brick Pattern" style="rounded=0;whiteSpace=wrap;html=1;" vertex="1" parent="1">
                    <mxGeometry x="650" y="580" width="120" height="60" as="geometry"/>
                </mxCell>
                <mxCell id="0lW3_WW0hC5Z8SqvEmVx-37" style="edgeStyle=none;html=1;entryX=0;entryY=0.5;entryDx=0;entryDy=0;" edge="1" parent="1" source="0lW3_WW0hC5Z8SqvEmVx-34" target="0lW3_WW0hC5Z8SqvEmVx-36">
                    <mxGeometry relative="1" as="geometry"/>
                </mxCell>
                <mxCell id="0lW3_WW0hC5Z8SqvEmVx-34" value="Brick Vertices&lt;br&gt;&lt;i&gt;?&lt;/i&gt;" style="shape=parallelogram;perimeter=parallelogramPerimeter;whiteSpace=wrap;html=1;fixedSize=1;fillColor=#000000;fontColor=#FFFFFF;" vertex="1" parent="1">
                    <mxGeometry x="790" y="580" width="130" height="60" as="geometry"/>
                </mxCell>
                <mxCell id="0lW3_WW0hC5Z8SqvEmVx-39" style="edgeStyle=none;html=1;entryX=0;entryY=0.5;entryDx=0;entryDy=0;" edge="1" parent="1" source="0lW3_WW0hC5Z8SqvEmVx-36" target="0lW3_WW0hC5Z8SqvEmVx-38">
                    <mxGeometry relative="1" as="geometry"/>
                </mxCell>
                <mxCell id="0lW3_WW0hC5Z8SqvEmVx-36" value="Create Brick faces" style="rounded=0;whiteSpace=wrap;html=1;" vertex="1" parent="1">
                    <mxGeometry x="940" y="580" width="120" height="60" as="geometry"/>
                </mxCell>
                <mxCell id="0lW3_WW0hC5Z8SqvEmVx-45" style="edgeStyle=orthogonalEdgeStyle;html=1;entryX=0.5;entryY=0;entryDx=0;entryDy=0;" edge="1" parent="1" source="0lW3_WW0hC5Z8SqvEmVx-38" target="0lW3_WW0hC5Z8SqvEmVx-40">
                    <mxGeometry relative="1" as="geometry">
                        <Array as="points">
                            <mxPoint x="1145" y="710"/>
                            <mxPoint x="420" y="710"/>
                        </Array>
                    </mxGeometry>
                </mxCell>
                <mxCell id="0lW3_WW0hC5Z8SqvEmVx-38" value="Brick Tessellation &lt;br&gt;Mesh&lt;br&gt;&lt;i&gt;json&lt;/i&gt;" style="shape=parallelogram;perimeter=parallelogramPerimeter;whiteSpace=wrap;html=1;fixedSize=1;fillColor=#000000;fontColor=#FFFFFF;" vertex="1" parent="1">
                    <mxGeometry x="1080" y="580" width="130" height="60" as="geometry"/>
                </mxCell>
                <mxCell id="0lW3_WW0hC5Z8SqvEmVx-44" style="edgeStyle=none;html=1;entryX=0;entryY=0.5;entryDx=0;entryDy=0;" edge="1" parent="1" source="0lW3_WW0hC5Z8SqvEmVx-40" target="0lW3_WW0hC5Z8SqvEmVx-41">
                    <mxGeometry relative="1" as="geometry"/>
                </mxCell>
                <mxCell id="0lW3_WW0hC5Z8SqvEmVx-46" style="edgeStyle=orthogonalEdgeStyle;html=1;entryX=0;entryY=0.5;entryDx=0;entryDy=0;" edge="1" parent="1" source="0lW3_WW0hC5Z8SqvEmVx-40" target="0lW3_WW0hC5Z8SqvEmVx-42">
                    <mxGeometry relative="1" as="geometry">
                        <Array as="points">
                            <mxPoint x="490" y="790"/>
                            <mxPoint x="490" y="860"/>
                        </Array>
                    </mxGeometry>
                </mxCell>
                <mxCell id="0lW3_WW0hC5Z8SqvEmVx-47" style="edgeStyle=orthogonalEdgeStyle;html=1;entryX=0;entryY=0.5;entryDx=0;entryDy=0;exitX=1;exitY=0.5;exitDx=0;exitDy=0;" edge="1" parent="1" source="0lW3_WW0hC5Z8SqvEmVx-40" target="0lW3_WW0hC5Z8SqvEmVx-43">
                    <mxGeometry relative="1" as="geometry">
                        <Array as="points">
                            <mxPoint x="490" y="790"/>
                            <mxPoint x="490" y="930"/>
                        </Array>
                    </mxGeometry>
                </mxCell>
                <mxCell id="0lW3_WW0hC5Z8SqvEmVx-40" value="Evaluate Vertices in Each Brick" style="rounded=0;whiteSpace=wrap;html=1;" vertex="1" parent="1">
                    <mxGeometry x="360" y="760" width="120" height="60" as="geometry"/>
                </mxCell>
                <mxCell id="0lW3_WW0hC5Z8SqvEmVx-53" style="edgeStyle=orthogonalEdgeStyle;html=1;entryX=0;entryY=0.5;entryDx=0;entryDy=0;" edge="1" parent="1" source="0lW3_WW0hC5Z8SqvEmVx-41" target="0lW3_WW0hC5Z8SqvEmVx-52">
                    <mxGeometry relative="1" as="geometry"/>
                </mxCell>
                <mxCell id="0lW3_WW0hC5Z8SqvEmVx-41" value="Boundary Bricks&lt;br&gt;&lt;i&gt;?&lt;/i&gt;" style="shape=parallelogram;perimeter=parallelogramPerimeter;whiteSpace=wrap;html=1;fixedSize=1;fillColor=#000000;fontColor=#FFFFFF;" vertex="1" parent="1">
                    <mxGeometry x="500" y="760" width="130" height="60" as="geometry"/>
                </mxCell>
                <mxCell id="0lW3_WW0hC5Z8SqvEmVx-54" style="edgeStyle=orthogonalEdgeStyle;html=1;entryX=0;entryY=0.5;entryDx=0;entryDy=0;" edge="1" parent="1" source="0lW3_WW0hC5Z8SqvEmVx-42" target="0lW3_WW0hC5Z8SqvEmVx-52">
                    <mxGeometry relative="1" as="geometry"/>
                </mxCell>
                <mxCell id="0lW3_WW0hC5Z8SqvEmVx-42" value="Course Bricks&lt;br&gt;&lt;i&gt;?&lt;/i&gt;" style="shape=parallelogram;perimeter=parallelogramPerimeter;whiteSpace=wrap;html=1;fixedSize=1;fillColor=#000000;fontColor=#FFFFFF;" vertex="1" parent="1">
                    <mxGeometry x="500" y="830" width="130" height="60" as="geometry"/>
                </mxCell>
                <mxCell id="0lW3_WW0hC5Z8SqvEmVx-55" style="edgeStyle=orthogonalEdgeStyle;html=1;entryX=0;entryY=0.5;entryDx=0;entryDy=0;" edge="1" parent="1" source="0lW3_WW0hC5Z8SqvEmVx-43" target="0lW3_WW0hC5Z8SqvEmVx-52">
                    <mxGeometry relative="1" as="geometry"/>
                </mxCell>
                <mxCell id="0lW3_WW0hC5Z8SqvEmVx-43" value="Half Bricks&lt;br&gt;&lt;i&gt;?&lt;/i&gt;" style="shape=parallelogram;perimeter=parallelogramPerimeter;whiteSpace=wrap;html=1;fixedSize=1;fillColor=#000000;fontColor=#FFFFFF;" vertex="1" parent="1">
                    <mxGeometry x="500" y="900" width="130" height="60" as="geometry"/>
                </mxCell>
                <mxCell id="0lW3_WW0hC5Z8SqvEmVx-58" style="edgeStyle=orthogonalEdgeStyle;html=1;entryX=0;entryY=0.5;entryDx=0;entryDy=0;" edge="1" parent="1" source="0lW3_WW0hC5Z8SqvEmVx-52" target="0lW3_WW0hC5Z8SqvEmVx-56">
                    <mxGeometry relative="1" as="geometry"/>
                </mxCell>
                <mxCell id="0lW3_WW0hC5Z8SqvEmVx-59" style="edgeStyle=orthogonalEdgeStyle;html=1;entryX=0;entryY=0.5;entryDx=0;entryDy=0;" edge="1" parent="1" source="0lW3_WW0hC5Z8SqvEmVx-52" target="0lW3_WW0hC5Z8SqvEmVx-57">
                    <mxGeometry relative="1" as="geometry">
                        <Array as="points">
                            <mxPoint x="780" y="790"/>
                            <mxPoint x="780" y="860"/>
                        </Array>
                    </mxGeometry>
                </mxCell>
                <mxCell id="0lW3_WW0hC5Z8SqvEmVx-52" value="Find Vertex Normals and Offset" style="rounded=0;whiteSpace=wrap;html=1;" vertex="1" parent="1">
                    <mxGeometry x="650" y="760" width="120" height="60" as="geometry"/>
                </mxCell>
                <mxCell id="0lW3_WW0hC5Z8SqvEmVx-61" style="edgeStyle=orthogonalEdgeStyle;html=1;entryX=0;entryY=0.5;entryDx=0;entryDy=0;" edge="1" parent="1" source="0lW3_WW0hC5Z8SqvEmVx-56" target="0lW3_WW0hC5Z8SqvEmVx-60">
                    <mxGeometry relative="1" as="geometry"/>
                </mxCell>
                <mxCell id="0lW3_WW0hC5Z8SqvEmVx-56" value="Outer Faces&lt;br&gt;&lt;i&gt;?&lt;/i&gt;" style="shape=parallelogram;perimeter=parallelogramPerimeter;whiteSpace=wrap;html=1;fixedSize=1;fillColor=#000000;fontColor=#FFFFFF;" vertex="1" parent="1">
                    <mxGeometry x="790" y="760" width="130" height="60" as="geometry"/>
                </mxCell>
                <mxCell id="0lW3_WW0hC5Z8SqvEmVx-62" style="edgeStyle=orthogonalEdgeStyle;html=1;entryX=0;entryY=0.5;entryDx=0;entryDy=0;" edge="1" parent="1" source="0lW3_WW0hC5Z8SqvEmVx-57" target="0lW3_WW0hC5Z8SqvEmVx-60">
                    <mxGeometry relative="1" as="geometry">
                        <Array as="points">
                            <mxPoint x="930" y="860"/>
                            <mxPoint x="930" y="790"/>
                        </Array>
                    </mxGeometry>
                </mxCell>
                <mxCell id="0lW3_WW0hC5Z8SqvEmVx-57" value="Inner Faces&lt;br&gt;&lt;i&gt;?&lt;/i&gt;" style="shape=parallelogram;perimeter=parallelogramPerimeter;whiteSpace=wrap;html=1;fixedSize=1;fillColor=#000000;fontColor=#FFFFFF;" vertex="1" parent="1">
                    <mxGeometry x="790" y="830" width="130" height="60" as="geometry"/>
                </mxCell>
                <mxCell id="0lW3_WW0hC5Z8SqvEmVx-64" style="edgeStyle=orthogonalEdgeStyle;html=1;entryX=0;entryY=0.5;entryDx=0;entryDy=0;" edge="1" parent="1" source="0lW3_WW0hC5Z8SqvEmVx-60" target="0lW3_WW0hC5Z8SqvEmVx-63">
                    <mxGeometry relative="1" as="geometry"/>
                </mxCell>
                <mxCell id="0lW3_WW0hC5Z8SqvEmVx-60" value="Add Edge Faces" style="rounded=0;whiteSpace=wrap;html=1;" vertex="1" parent="1">
                    <mxGeometry x="940" y="760" width="120" height="60" as="geometry"/>
                </mxCell>
                <mxCell id="0lW3_WW0hC5Z8SqvEmVx-63" value="Final Blocks&lt;br&gt;&lt;i&gt;json&lt;/i&gt;" style="shape=parallelogram;perimeter=parallelogramPerimeter;whiteSpace=wrap;html=1;fixedSize=1;fillColor=#000000;fontColor=#FFFFFF;" vertex="1" parent="1">
                    <mxGeometry x="1080" y="760" width="130" height="60" as="geometry"/>
                </mxCell>
            </root>
        </mxGraphModel>
    </diagram>
</mxfile>